<svg xmlns="http://www.w3.org/2000/svg" viewBox="0 0 32 32"><defs><style>.cls-1{fill:#fff;}.cls-2{fill:#f15c40;}.cls-3{fill:#fbfbeb;}</style></defs><title>moom final logo01_orange bg_35x35px</title><g id="Layer_2" data-name="Layer 2"><rect class="cls-1" width="32" height="32"/><rect class="cls-2" width="32" height="32"/></g><g id="Layer_1" data-name="Layer 1"><path class="cls-3" d="M8.5,12V20H23.72V12Zm7,6.62H9.82v-5.3h5.63Zm7,0H16.77v-5.3H22.4Z"/><polygon class="cls-3" points="23.72 2.76 23.72 10.7 22.4 10.71 22.4 4.36 16.77 5.37 16.77 10.7 15.45 10.7 15.45 4.29 9.82 5.31 9.82 10.7 8.49 10.7 8.49 2.76 9.82 2.76 9.82 3.96 16.77 2.76 16.77 4.02 23.72 2.76"/><polygon class="cls-3" points="23.72 21.3 23.72 29.24 22.4 29.24 22.4 23.54 16.77 26.61 16.77 29.24 15.45 29.24 15.45 23.54 9.82 26.61 9.82 29.24 8.5 29.24 8.5 21.3 9.82 21.3 9.82 25.09 16.77 21.3 16.77 25.09 23.72 21.3"/></g></svg>