<svg xmlns="http://www.w3.org/2000/svg" viewBox="0 0 15.23 26.48"><defs><style>.cls-1{fill:#f15c40;}</style></defs><title>moom final logo01_orange_35x35px_thumbnail</title><g id="Layer_1" data-name="Layer 1"><path class="cls-1" d="M15.88,26.69" transform="translate(-8.49 -2.76)"/><path class="cls-1" d="M8.5,12V20H23.72V12Zm7,6.62H9.82v-5.3h5.63Zm7,0H16.77v-5.3H22.4Z" transform="translate(-8.49 -2.76)"/><polygon class="cls-1" points="15.23 0 15.23 7.95 13.9 7.95 13.9 1.6 8.28 2.61 8.28 7.95 6.95 7.95 6.95 1.53 1.32 2.55 1.32 7.94 0 7.94 0 0 1.32 0 1.32 1.2 8.27 0 8.28 1.26 15.23 0"/><polygon class="cls-1" points="15.22 18.54 15.22 26.48 13.91 26.48 13.9 20.78 8.28 23.86 8.28 26.48 6.95 26.48 6.95 20.78 1.33 23.86 1.32 26.48 0 26.48 0 18.54 1.32 18.54 1.33 22.33 8.28 18.54 8.28 22.33 15.22 18.54"/></g></svg>