<svg xmlns="http://www.w3.org/2000/svg" viewBox="0 0 207.04 404.98"><defs><style>.cls-1{fill:#f15c40;}</style></defs><title>moom final logo01_orange</title><g id="Layer_1" data-name="Layer 1"><path class="cls-1" d="M54,153V261H261V153ZM153,252H63V162h90Zm99,0H162V162H252Z" transform="translate(-53.99 -36)"/><polygon class="cls-1" points="207.03 0.02 207.03 108.01 198.01 108 198.01 10.76 108.06 27.16 108.06 108.01 99.01 108 99.01 10.78 8.99 27.19 8.99 108 0 107.99 0 0 8.99 0.01 8.99 17.98 108.06 0.03 108.06 17.95 207.03 0.02"/><polygon class="cls-1" points="207.01 234 207.01 342 198.01 342 198.03 249.16 108.01 298.34 108.01 342 99.01 342 99.03 249.16 9.01 298.34 9.01 342 0.01 342 0.01 234 9.01 234 9.01 288 108.01 234 108.01 288 207.01 234"/><path class="cls-1" d="M62.94,396.05" transform="translate(-53.99 -36)"/></g><g id="Layer_2" data-name="Layer 2"><polygon class="cls-1" points="188.25 390.96 199.58 374.23 199.58 404.98 207.01 404.98 207.01 360 199.58 360 184.51 382.29 169.46 360 162.01 360 162.01 404.98 169.46 404.98 169.46 374.24 180.78 390.96 188.25 390.96"/><polygon class="cls-1" points="26.24 390.96 37.57 374.23 37.57 404.98 45.01 404.98 45.01 360 37.57 360 22.51 382.29 7.45 360 0.01 360 0.01 404.98 7.45 404.98 7.45 374.24 18.77 390.96 26.24 390.96"/><path class="cls-1" d="M108,418.57a21.86,21.86,0,0,1,6.56-15.95A22.49,22.49,0,1,1,108,418.57Zm37.29,0a14.43,14.43,0,0,0-4.4-10.5,14.44,14.44,0,0,0-20.83,0,14.56,14.56,0,0,0-4.36,10.57,14.25,14.25,0,0,0,4.22,10.4,14.11,14.11,0,0,0,10.47,4.27A14.4,14.4,0,0,0,141,429,14.14,14.14,0,0,0,145.31,418.59Z" transform="translate(-53.99 -36)"/><path class="cls-1" d="M162,418.6a21.84,21.84,0,0,1,6.56-15.94,22.54,22.54,0,0,1,31.91,0,22.55,22.55,0,0,1,.08,31.7A22.54,22.54,0,0,1,162,418.6Zm37.29,0a14.44,14.44,0,0,0-4.39-10.51,14.45,14.45,0,0,0-20.84,0,14.56,14.56,0,0,0-4.36,10.57,14.25,14.25,0,0,0,4.22,10.4,14.11,14.11,0,0,0,10.47,4.27,14.43,14.43,0,0,0,10.58-4.3A14.19,14.19,0,0,0,199.31,418.63Z" transform="translate(-53.99 -36)"/></g></svg>